<mxfile host="app.diagrams.net" modified="2023-12-05T03:50:04.979Z" agent="Mozilla/5.0 (Windows NT 10.0; Win64; x64) AppleWebKit/537.36 (KHTML, like Gecko) Chrome/118.0.0.0 Safari/537.36" etag="Nle-OWn0v2zUKG1D8bcN" version="22.1.5" type="device">
  <diagram name="Page-1" id="DzhSQO73DSki14xKmCqW">
    <mxGraphModel dx="948" dy="514" grid="1" gridSize="10" guides="1" tooltips="1" connect="1" arrows="1" fold="1" page="1" pageScale="1" pageWidth="850" pageHeight="1100" math="0" shadow="0">
      <root>
        <mxCell id="0" />
        <mxCell id="1" parent="0" />
        <mxCell id="awyPaQthuCvUyQTzf5ff-2" style="edgeStyle=orthogonalEdgeStyle;rounded=0;orthogonalLoop=1;jettySize=auto;html=1;endArrow=none;endFill=0;" edge="1" parent="1" source="awyPaQthuCvUyQTzf5ff-1">
          <mxGeometry relative="1" as="geometry">
            <mxPoint x="160" y="160" as="targetPoint" />
          </mxGeometry>
        </mxCell>
        <mxCell id="awyPaQthuCvUyQTzf5ff-5" style="edgeStyle=orthogonalEdgeStyle;rounded=0;orthogonalLoop=1;jettySize=auto;html=1;exitX=1;exitY=0.5;exitDx=0;exitDy=0;entryX=0;entryY=0.5;entryDx=0;entryDy=0;" edge="1" parent="1" source="awyPaQthuCvUyQTzf5ff-1" target="awyPaQthuCvUyQTzf5ff-4">
          <mxGeometry relative="1" as="geometry">
            <mxPoint x="380" y="250" as="targetPoint" />
          </mxGeometry>
        </mxCell>
        <mxCell id="awyPaQthuCvUyQTzf5ff-10" style="edgeStyle=orthogonalEdgeStyle;rounded=0;orthogonalLoop=1;jettySize=auto;html=1;exitX=0.5;exitY=1;exitDx=0;exitDy=0;" edge="1" parent="1" source="awyPaQthuCvUyQTzf5ff-1" target="awyPaQthuCvUyQTzf5ff-9">
          <mxGeometry relative="1" as="geometry" />
        </mxCell>
        <mxCell id="awyPaQthuCvUyQTzf5ff-1" value=":PropriedadeManager" style="rounded=0;whiteSpace=wrap;html=1;" vertex="1" parent="1">
          <mxGeometry x="100" y="220" width="120" height="60" as="geometry" />
        </mxCell>
        <mxCell id="awyPaQthuCvUyQTzf5ff-3" value="getProperties()" style="text;html=1;align=center;verticalAlign=middle;resizable=0;points=[];autosize=1;strokeColor=none;fillColor=none;" vertex="1" parent="1">
          <mxGeometry x="110" y="130" width="100" height="30" as="geometry" />
        </mxCell>
        <mxCell id="awyPaQthuCvUyQTzf5ff-4" value=":DaoManager" style="rounded=0;whiteSpace=wrap;html=1;" vertex="1" parent="1">
          <mxGeometry x="400" y="220" width="120" height="60" as="geometry" />
        </mxCell>
        <mxCell id="awyPaQthuCvUyQTzf5ff-6" value="1. getPropriedadeDAO()" style="text;html=1;align=center;verticalAlign=middle;resizable=0;points=[];autosize=1;strokeColor=none;fillColor=none;" vertex="1" parent="1">
          <mxGeometry x="240" y="220" width="150" height="30" as="geometry" />
        </mxCell>
        <mxCell id="awyPaQthuCvUyQTzf5ff-13" style="edgeStyle=orthogonalEdgeStyle;rounded=0;orthogonalLoop=1;jettySize=auto;html=1;exitX=1;exitY=0.5;exitDx=0;exitDy=0;" edge="1" parent="1" source="awyPaQthuCvUyQTzf5ff-9" target="awyPaQthuCvUyQTzf5ff-12">
          <mxGeometry relative="1" as="geometry" />
        </mxCell>
        <mxCell id="awyPaQthuCvUyQTzf5ff-9" value=":PropriedadeDAO" style="rounded=0;whiteSpace=wrap;html=1;" vertex="1" parent="1">
          <mxGeometry x="100" y="430" width="120" height="60" as="geometry" />
        </mxCell>
        <mxCell id="awyPaQthuCvUyQTzf5ff-11" value="2. props := getProperties()" style="text;html=1;align=center;verticalAlign=middle;resizable=0;points=[];autosize=1;strokeColor=none;fillColor=none;" vertex="1" parent="1">
          <mxGeometry x="160" y="350" width="160" height="30" as="geometry" />
        </mxCell>
        <mxCell id="awyPaQthuCvUyQTzf5ff-15" style="edgeStyle=orthogonalEdgeStyle;rounded=0;orthogonalLoop=1;jettySize=auto;html=1;exitX=0.5;exitY=0;exitDx=0;exitDy=0;entryX=0.5;entryY=1;entryDx=0;entryDy=0;" edge="1" parent="1" source="awyPaQthuCvUyQTzf5ff-12" target="awyPaQthuCvUyQTzf5ff-4">
          <mxGeometry relative="1" as="geometry" />
        </mxCell>
        <mxCell id="awyPaQthuCvUyQTzf5ff-20" style="edgeStyle=orthogonalEdgeStyle;rounded=0;orthogonalLoop=1;jettySize=auto;html=1;exitX=0.5;exitY=1;exitDx=0;exitDy=0;" edge="1" parent="1" source="awyPaQthuCvUyQTzf5ff-12" target="awyPaQthuCvUyQTzf5ff-19">
          <mxGeometry relative="1" as="geometry" />
        </mxCell>
        <mxCell id="awyPaQthuCvUyQTzf5ff-12" value=":ProjetoManager" style="rounded=0;whiteSpace=wrap;html=1;" vertex="1" parent="1">
          <mxGeometry x="400" y="430" width="120" height="60" as="geometry" />
        </mxCell>
        <mxCell id="awyPaQthuCvUyQTzf5ff-14" value="3. getProjects(propertyId)" style="text;html=1;align=center;verticalAlign=middle;resizable=0;points=[];autosize=1;strokeColor=none;fillColor=none;" vertex="1" parent="1">
          <mxGeometry x="230" y="430" width="160" height="30" as="geometry" />
        </mxCell>
        <mxCell id="awyPaQthuCvUyQTzf5ff-16" value="4. getProjetoDAO()" style="text;html=1;align=center;verticalAlign=middle;resizable=0;points=[];autosize=1;strokeColor=none;fillColor=none;rotation=-90;" vertex="1" parent="1">
          <mxGeometry x="385" y="340" width="130" height="30" as="geometry" />
        </mxCell>
        <mxCell id="awyPaQthuCvUyQTzf5ff-23" style="edgeStyle=orthogonalEdgeStyle;rounded=0;orthogonalLoop=1;jettySize=auto;html=1;exitX=1;exitY=0.5;exitDx=0;exitDy=0;entryX=0;entryY=0.5;entryDx=0;entryDy=0;" edge="1" parent="1" source="awyPaQthuCvUyQTzf5ff-19" target="awyPaQthuCvUyQTzf5ff-22">
          <mxGeometry relative="1" as="geometry" />
        </mxCell>
        <mxCell id="awyPaQthuCvUyQTzf5ff-19" value=":ProjetoDAO" style="rounded=0;whiteSpace=wrap;html=1;" vertex="1" parent="1">
          <mxGeometry x="400" y="610" width="120" height="60" as="geometry" />
        </mxCell>
        <mxCell id="awyPaQthuCvUyQTzf5ff-21" value="5. projs := getProjects(propertyId)" style="text;html=1;align=center;verticalAlign=middle;resizable=0;points=[];autosize=1;strokeColor=none;fillColor=none;" vertex="1" parent="1">
          <mxGeometry x="250" y="530" width="200" height="30" as="geometry" />
        </mxCell>
        <mxCell id="awyPaQthuCvUyQTzf5ff-25" style="edgeStyle=orthogonalEdgeStyle;rounded=0;orthogonalLoop=1;jettySize=auto;html=1;exitX=0.25;exitY=0;exitDx=0;exitDy=0;entryX=1;entryY=0.5;entryDx=0;entryDy=0;" edge="1" parent="1" source="awyPaQthuCvUyQTzf5ff-22" target="awyPaQthuCvUyQTzf5ff-4">
          <mxGeometry relative="1" as="geometry">
            <mxPoint x="732.5" y="240.0000000000001" as="targetPoint" />
          </mxGeometry>
        </mxCell>
        <mxCell id="awyPaQthuCvUyQTzf5ff-29" style="edgeStyle=orthogonalEdgeStyle;rounded=0;orthogonalLoop=1;jettySize=auto;html=1;exitX=0.5;exitY=1;exitDx=0;exitDy=0;entryX=0.5;entryY=0;entryDx=0;entryDy=0;" edge="1" parent="1" source="awyPaQthuCvUyQTzf5ff-22" target="awyPaQthuCvUyQTzf5ff-30">
          <mxGeometry relative="1" as="geometry">
            <mxPoint x="765" y="760" as="targetPoint" />
          </mxGeometry>
        </mxCell>
        <mxCell id="awyPaQthuCvUyQTzf5ff-22" value=":EtapaProjetoManager" style="rounded=0;whiteSpace=wrap;html=1;" vertex="1" parent="1">
          <mxGeometry x="700" y="610" width="130" height="60" as="geometry" />
        </mxCell>
        <mxCell id="awyPaQthuCvUyQTzf5ff-24" value="6. getProjectStages(projectId)" style="text;html=1;align=center;verticalAlign=middle;resizable=0;points=[];autosize=1;strokeColor=none;fillColor=none;" vertex="1" parent="1">
          <mxGeometry x="520" y="610" width="180" height="30" as="geometry" />
        </mxCell>
        <mxCell id="awyPaQthuCvUyQTzf5ff-26" value="7. getEtapaProjetoDAO()" style="text;html=1;align=center;verticalAlign=middle;resizable=0;points=[];autosize=1;strokeColor=none;fillColor=none;" vertex="1" parent="1">
          <mxGeometry x="730" y="420" width="160" height="30" as="geometry" />
        </mxCell>
        <mxCell id="awyPaQthuCvUyQTzf5ff-34" style="edgeStyle=orthogonalEdgeStyle;rounded=0;orthogonalLoop=1;jettySize=auto;html=1;exitX=1;exitY=0.5;exitDx=0;exitDy=0;entryX=0.5;entryY=1;entryDx=0;entryDy=0;" edge="1" parent="1" source="awyPaQthuCvUyQTzf5ff-30" target="awyPaQthuCvUyQTzf5ff-33">
          <mxGeometry relative="1" as="geometry">
            <mxPoint x="1033" y="800" as="targetPoint" />
          </mxGeometry>
        </mxCell>
        <mxCell id="awyPaQthuCvUyQTzf5ff-30" value=":EtapaProjetoDAO" style="rounded=0;whiteSpace=wrap;html=1;" vertex="1" parent="1">
          <mxGeometry x="700" y="790" width="130" height="60" as="geometry" />
        </mxCell>
        <mxCell id="awyPaQthuCvUyQTzf5ff-32" value="8. projstgs := getProjectStages(projectId)" style="text;html=1;align=center;verticalAlign=middle;resizable=0;points=[];autosize=1;strokeColor=none;fillColor=none;" vertex="1" parent="1">
          <mxGeometry x="520" y="720" width="240" height="30" as="geometry" />
        </mxCell>
        <mxCell id="awyPaQthuCvUyQTzf5ff-36" style="edgeStyle=orthogonalEdgeStyle;rounded=0;orthogonalLoop=1;jettySize=auto;html=1;exitX=0.5;exitY=0;exitDx=0;exitDy=0;entryX=0.5;entryY=0;entryDx=0;entryDy=0;" edge="1" parent="1" source="awyPaQthuCvUyQTzf5ff-33" target="awyPaQthuCvUyQTzf5ff-4">
          <mxGeometry relative="1" as="geometry">
            <mxPoint x="1025.103448275862" y="88.62068965517241" as="targetPoint" />
          </mxGeometry>
        </mxCell>
        <mxCell id="awyPaQthuCvUyQTzf5ff-38" style="edgeStyle=orthogonalEdgeStyle;rounded=0;orthogonalLoop=1;jettySize=auto;html=1;exitX=0.75;exitY=1;exitDx=0;exitDy=0;" edge="1" parent="1" source="awyPaQthuCvUyQTzf5ff-33">
          <mxGeometry relative="1" as="geometry">
            <mxPoint x="1057.5172413793105" y="921.3793103448273" as="targetPoint" />
          </mxGeometry>
        </mxCell>
        <mxCell id="awyPaQthuCvUyQTzf5ff-41" style="edgeStyle=orthogonalEdgeStyle;rounded=0;orthogonalLoop=1;jettySize=auto;html=1;exitX=1;exitY=0.75;exitDx=0;exitDy=0;entryX=1;entryY=0.25;entryDx=0;entryDy=0;" edge="1" parent="1" source="awyPaQthuCvUyQTzf5ff-33" target="awyPaQthuCvUyQTzf5ff-33">
          <mxGeometry relative="1" as="geometry">
            <mxPoint x="1140" y="765.3103448275863" as="targetPoint" />
            <Array as="points">
              <mxPoint x="1120" y="765" />
              <mxPoint x="1120" y="735" />
            </Array>
          </mxGeometry>
        </mxCell>
        <mxCell id="awyPaQthuCvUyQTzf5ff-45" style="edgeStyle=orthogonalEdgeStyle;rounded=0;orthogonalLoop=1;jettySize=auto;html=1;exitX=1;exitY=0;exitDx=0;exitDy=0;entryX=0.294;entryY=-0.026;entryDx=0;entryDy=0;entryPerimeter=0;" edge="1" parent="1" source="awyPaQthuCvUyQTzf5ff-33" target="awyPaQthuCvUyQTzf5ff-33">
          <mxGeometry relative="1" as="geometry">
            <mxPoint x="1040" y="610" as="targetPoint" />
            <Array as="points">
              <mxPoint x="1090" y="630" />
              <mxPoint x="998" y="630" />
            </Array>
          </mxGeometry>
        </mxCell>
        <mxCell id="awyPaQthuCvUyQTzf5ff-33" value=":FormularioManager" style="rounded=0;whiteSpace=wrap;html=1;" vertex="1" parent="1">
          <mxGeometry x="960" y="720" width="130" height="60" as="geometry" />
        </mxCell>
        <mxCell id="awyPaQthuCvUyQTzf5ff-35" value="9. getForm(projectStageId)" style="text;html=1;align=center;verticalAlign=middle;resizable=0;points=[];autosize=1;strokeColor=none;fillColor=none;" vertex="1" parent="1">
          <mxGeometry x="850" y="828" width="170" height="30" as="geometry" />
        </mxCell>
        <mxCell id="awyPaQthuCvUyQTzf5ff-37" value="10. getFormularioDAO()" style="text;html=1;align=center;verticalAlign=middle;resizable=0;points=[];autosize=1;strokeColor=none;fillColor=none;" vertex="1" parent="1">
          <mxGeometry x="870" y="550" width="150" height="30" as="geometry" />
        </mxCell>
        <mxCell id="awyPaQthuCvUyQTzf5ff-39" value=":FormularioDAO" style="rounded=0;whiteSpace=wrap;html=1;" vertex="1" parent="1">
          <mxGeometry x="990" y="910" width="130" height="60" as="geometry" />
        </mxCell>
        <mxCell id="awyPaQthuCvUyQTzf5ff-40" value="11. form := getForm(projectStageId)" style="text;html=1;align=center;verticalAlign=middle;resizable=0;points=[];autosize=1;strokeColor=none;fillColor=none;" vertex="1" parent="1">
          <mxGeometry x="1050" y="840" width="210" height="30" as="geometry" />
        </mxCell>
        <mxCell id="awyPaQthuCvUyQTzf5ff-42" value="12. initForm(projectStageId)" style="text;html=1;align=center;verticalAlign=middle;resizable=0;points=[];autosize=1;strokeColor=none;fillColor=none;" vertex="1" parent="1">
          <mxGeometry x="1120" y="735" width="170" height="30" as="geometry" />
        </mxCell>
        <mxCell id="awyPaQthuCvUyQTzf5ff-43" style="edgeStyle=orthogonalEdgeStyle;rounded=0;orthogonalLoop=1;jettySize=auto;html=1;exitX=1;exitY=1;exitDx=0;exitDy=0;entryX=1;entryY=0;entryDx=0;entryDy=0;" edge="1" parent="1" source="awyPaQthuCvUyQTzf5ff-33" target="awyPaQthuCvUyQTzf5ff-33">
          <mxGeometry relative="1" as="geometry">
            <Array as="points">
              <mxPoint x="1290" y="780" />
              <mxPoint x="1290" y="720" />
            </Array>
          </mxGeometry>
        </mxCell>
        <mxCell id="awyPaQthuCvUyQTzf5ff-44" value="12.1 getFormFields(projectStageId)" style="text;html=1;align=center;verticalAlign=middle;resizable=0;points=[];autosize=1;strokeColor=none;fillColor=none;" vertex="1" parent="1">
          <mxGeometry x="1290" y="735" width="210" height="30" as="geometry" />
        </mxCell>
        <mxCell id="awyPaQthuCvUyQTzf5ff-46" value="12.2* addFormField(projectStageId, formFieldId)" style="text;html=1;align=center;verticalAlign=middle;resizable=0;points=[];autosize=1;strokeColor=none;fillColor=none;" vertex="1" parent="1">
          <mxGeometry x="1015" y="580" width="280" height="30" as="geometry" />
        </mxCell>
      </root>
    </mxGraphModel>
  </diagram>
</mxfile>
